<?xml version="1.0" encoding="utf-8"?>
<svg id="master-artboard" viewBox="0 0 703.2964477539062 157.21083068847656" version="1.1" xmlns="http://www.w3.org/2000/svg" x="0px" y="0px" style="enable-background:new 0 0 336 235.2;" width="703.2964477539062px" height="157.21083068847656px" xmlns:xlink="http://www.w3.org/1999/xlink"><rect id="ee-background" x="0" y="0" width="703.2964477539062" height="157.21083068847656" style="fill: white; fill-opacity: 0; pointer-events: none;"/>














<g transform="matrix(1.2760417461395264, 0, 0, 1.2760417461395264, -304.10986709594727, -383.10614013671875)"><metadata id="metadata299300">
    
  </metadata><linearGradient spreadMethod="pad" y2="30%" x2="-10%" y1="120%" x1="30%" id="3d_gradient2-logo-1a5f15a2-f5c7-4dca-8977-4d8038c50665">
    <stop id="stop299275" stop-opacity="1" stop-color="#ffffff" offset="0%"/>
    <stop id="stop299277" stop-opacity="1" stop-color="#000000" offset="100%"/>
  </linearGradient><linearGradient gradientTransform="rotate(-30)" spreadMethod="pad" y2="30%" x2="-10%" y1="120%" x1="30%" id="3d_gradient3-logo-1a5f15a2-f5c7-4dca-8977-4d8038c50665">
    <stop id="stop299280" stop-opacity="1" stop-color="#ffffff" offset="0%"/>
    <stop id="stop299282" stop-opacity="1" stop-color="#cccccc" offset="50%"/>
    <stop id="stop299284" stop-opacity="1" stop-color="#000000" offset="100%"/>
  </linearGradient><g id="logo-group">
    <image id="container" x="272" y="144" width="480" height="480" style="display: none;" transform="translate(0 0)" xlink:href=""/>
    <g id="logo-center" transform="translate(0 0)">
      <image id="icon_container" style="display: none;" x="0" y="0" xlink:href=""/>
      <g id="slogan" style="font-style:normal;font-weight:300;font-size:32px;line-height:1;font-family:Montserrat;font-variant-ligatures:none;text-align:center;text-anchor:middle" transform="translate(0 0)">
        <path id="path299302" style="font-style:normal;font-weight:300;font-size:32px;line-height:1;font-family:Montserrat;font-variant-ligatures:none;text-align:center;text-anchor:middle" d="m 284.43025,-22.56 q 3.2,0 5.856,1.536 2.688,1.504 4.256,4.096 1.568,2.592 1.568,5.696 0,3.104 -1.568,5.728 -1.568,2.624 -4.256,4.16 -2.656,1.536 -5.856,1.536 -3.2,0 -5.888,-1.536 -2.656,-1.536 -4.224,-4.16 -1.568,-2.624 -1.568,-5.728 0,-3.104 1.568,-5.696 1.568,-2.592 4.224,-4.096 2.688,-1.536 5.888,-1.536 z m 0.032,1.984 q -2.56,0 -4.736,1.248 -2.176,1.248 -3.456,3.392 -1.28,2.144 -1.28,4.704 0,2.56 1.28,4.736 1.28,2.176 3.456,3.456 2.176,1.248 4.736,1.248 2.528,0 4.672,-1.248 2.176,-1.28 3.456,-3.456 1.28,-2.176 1.28,-4.736 0,-2.56 -1.28,-4.704 -1.28,-2.144 -3.456,-3.392 -2.144,-1.248 -4.672,-1.248 z" stroke-width="0" stroke-linejoin="miter" stroke-miterlimit="2" fill="#232323" stroke="#232323" transform="translate(0 389.82200000000006) translate(315.31846475 56.824) scale(0.75) translate(-272.75025 22.56)"/>
        <path id="path299304" style="font-style:normal;font-weight:300;font-size:32px;line-height:1;font-family:Montserrat;font-variant-ligatures:none;text-align:center;text-anchor:middle" d="m 309.37275,-16.832 q 3.008,0 4.704,1.76 1.728,1.728 1.728,4.768 V 0 h -2.176 v -9.792 q 0,-2.368 -1.312,-3.712 -1.312,-1.344 -3.648,-1.344 -2.592,0.032 -4.16,1.6 -1.536,1.568 -1.76,4.224 V 0 h -2.144 v -16.768 h 2.144 v 3.904 q 0.864,-1.952 2.528,-2.944 1.696,-0.992 4.096,-1.024 z" stroke-width="0" stroke-linejoin="miter" stroke-miterlimit="2" fill="#232323" stroke="#232323" transform="translate(0 389.82200000000006) translate(337.70933974999997 61.12) scale(0.75) translate(-300.60475 16.832)"/>
        <path id="path299306" style="font-style:normal;font-weight:300;font-size:32px;line-height:1;font-family:Montserrat;font-variant-ligatures:none;text-align:center;text-anchor:middle" d="M 336.80625,-23.744 V 0 h -2.144 v -3.84 q -0.96,1.888 -2.688,2.944 -1.728,1.024 -4.032,1.024 -2.368,0 -4.224,-1.088 -1.856,-1.088 -2.88,-3.04 -1.024,-1.952 -1.024,-4.416 0,-2.464 1.024,-4.384 1.056,-1.92 2.88,-3.008 1.856,-1.088 4.192,-1.088 2.304,0 4.032,1.056 1.76,1.056 2.72,2.944 v -10.848 z m -8.48,22.016 q 1.824,0 3.264,-0.832 1.44,-0.864 2.24,-2.368 0.832,-1.504 0.832,-3.424 0,-1.92 -0.832,-3.424 -0.8,-1.536 -2.24,-2.4 -1.44,-0.864 -3.264,-0.864 -1.824,0 -3.264,0.864 -1.44,0.864 -2.272,2.4 -0.832,1.504 -0.832,3.424 0,1.92 0.8,3.424 0.832,1.504 2.272,2.368 1.472,0.832 3.296,0.832 z" stroke-width="0" stroke-linejoin="miter" stroke-miterlimit="2" fill="#232323" stroke="#232323" transform="translate(0 389.82200000000006) translate(353.61646475 55.936) scale(0.75) translate(-319.81425 23.744)"/>
        <path id="path299308" style="font-style:normal;font-weight:300;font-size:32px;line-height:1;font-family:Montserrat;font-variant-ligatures:none;text-align:center;text-anchor:middle" d="m 349.75775,-16.832 q 3.904,0 5.952,2.496 2.048,2.464 1.888,6.656 h -13.984 q 0.224,2.688 1.984,4.352 1.76,1.632 4.352,1.632 1.6,0 2.976,-0.576 1.376,-0.576 2.368,-1.632 l 1.216,1.216 q -1.216,1.312 -2.944,2.048 -1.696,0.704 -3.744,0.704 -2.432,0 -4.32,-1.056 -1.888,-1.088 -2.976,-3.008 -1.056,-1.92 -1.056,-4.384 0,-2.432 1.056,-4.352 1.088,-1.952 2.976,-3.008 1.888,-1.088 4.256,-1.088 z m 5.92,7.488 q -0.16,-2.624 -1.76,-4.16 -1.568,-1.568 -4.128,-1.568 -2.528,0 -4.224,1.568 -1.696,1.568 -1.952,4.16 z" stroke-width="0" stroke-linejoin="miter" stroke-miterlimit="2" fill="#232323" stroke="#232323" transform="translate(0 389.82200000000006) translate(371.35808975 61.12) scale(0.75) translate(-341.46975 16.832)"/>
        <path id="path299310" style="font-style:normal;font-weight:300;font-size:32px;line-height:1;font-family:Montserrat;font-variant-ligatures:none;text-align:center;text-anchor:middle" d="m 379.36525,-1.152 q -1.728,1.184 -3.712,1.248 -1.92,0 -3.04,-1.184 -1.12,-1.184 -1.12,-3.552 v -9.984 h -2.4 l -0.032,-1.664 h 2.432 v -4.32 h 2.144 v 4.32 l 5.44,-0.032 v 1.696 h -5.44 v 9.632 q 0,3.104 2.304,3.104 1.28,0 2.784,-0.896 z" stroke-width="0" stroke-linejoin="miter" stroke-miterlimit="2" fill="#232323" stroke="#232323" transform="translate(0 389.82200000000006) translate(393.55171475 58.288) scale(0.75) translate(-369.06125 20.608)"/>
        <path id="path299312" style="font-style:normal;font-weight:300;font-size:32px;line-height:1;font-family:Montserrat;font-variant-ligatures:none;text-align:center;text-anchor:middle" d="m 389.50775,-16.832 q 3.904,0 5.952,2.496 2.048,2.464 1.888,6.656 h -13.984 q 0.224,2.688 1.984,4.352 1.76,1.632 4.352,1.632 1.6,0 2.976,-0.576 1.376,-0.576 2.368,-1.632 l 1.216,1.216 q -1.216,1.312 -2.944,2.048 -1.696,0.704 -3.744,0.704 -2.432,0 -4.32,-1.056 -1.888,-1.088 -2.976,-3.008 -1.056,-1.92 -1.056,-4.384 0,-2.432 1.056,-4.352 1.088,-1.952 2.976,-3.008 1.888,-1.088 4.256,-1.088 z m 5.92,7.488 q -0.16,-2.624 -1.76,-4.16 -1.568,-1.568 -4.128,-1.568 -2.528,0 -4.224,1.568 -1.696,1.568 -1.952,4.16 z" stroke-width="0" stroke-linejoin="miter" stroke-miterlimit="2" fill="#232323" stroke="#232323" transform="translate(0 389.82200000000006) translate(404.17058975 61.12) scale(0.75) translate(-381.21975 16.832)"/>
        <path id="path299314" style="font-style:normal;font-weight:300;font-size:32px;line-height:1;font-family:Montserrat;font-variant-ligatures:none;text-align:center;text-anchor:middle" d="m 423.26275,-16.832 q 2.976,0 4.64,1.728 1.664,1.728 1.664,4.8 V 0 h -2.176 v -9.792 q 0,-2.4 -1.312,-3.712 -1.28,-1.344 -3.552,-1.344 -2.688,0.064 -4.224,1.856 -1.504,1.792 -1.504,4.736 V 0 h -2.176 v -9.792 q 0,-2.4 -1.312,-3.712 -1.28,-1.344 -3.552,-1.344 -2.688,0.064 -4.224,1.856 -1.536,1.792 -1.536,4.736 V 0 h -2.144 v -16.768 h 2.144 v 3.936 q 0.832,-1.984 2.464,-2.976 1.664,-0.992 4.032,-1.024 2.4,0 3.968,1.184 1.6,1.184 2.112,3.328 0.768,-2.24 2.464,-3.36 1.728,-1.12 4.224,-1.152 z" stroke-width="0" stroke-linejoin="miter" stroke-miterlimit="2" fill="#232323" stroke="#232323" transform="translate(0 389.82200000000006) translate(421.14683975 61.12) scale(0.75) translate(-401.85475 16.832)"/>
        <path id="path299316" style="font-style:normal;font-weight:300;font-size:32px;line-height:1;font-family:Montserrat;font-variant-ligatures:none;text-align:center;text-anchor:middle" d="m 452.74475,-22.368 q 4.16,0 6.432,1.952 2.272,1.92 2.272,5.472 0,3.68 -2.272,5.696 -2.272,2.016 -6.432,2.016 h -6.048 V 0 h -2.208 v -22.368 z m -0.096,13.152 q 3.2,0 4.928,-1.44 1.76,-1.472 1.76,-4.224 0,-2.688 -1.728,-4.096 -1.728,-1.408 -4.96,-1.408 h -5.952 v 11.168 z" stroke-width="0" stroke-linejoin="miter" stroke-miterlimit="2" fill="#232323" stroke="#232323" transform="translate(0 389.82200000000006) translate(454.62233975 56.968) scale(0.75) translate(-444.48875 22.368)"/>
        <path id="path299318" style="font-style:normal;font-weight:300;font-size:32px;line-height:1;font-family:Montserrat;font-variant-ligatures:none;text-align:center;text-anchor:middle" d="m 472.19975,-16.832 q 2.432,0 4.352,1.088 1.92,1.056 3.008,2.976 1.088,1.92 1.088,4.352 0,2.464 -1.088,4.416 -1.088,1.92 -3.008,3.008 -1.92,1.056 -4.352,1.056 -2.432,0 -4.352,-1.056 -1.92,-1.088 -3.008,-3.008 -1.088,-1.952 -1.088,-4.416 0,-2.432 1.088,-4.352 1.088,-1.92 3.008,-2.976 1.92,-1.088 4.352,-1.088 z m 0,1.856 q -1.824,0 -3.264,0.832 -1.44,0.832 -2.24,2.336 -0.8,1.504 -0.8,3.424 0,1.952 0.8,3.456 0.8,1.504 2.24,2.336 1.44,0.832 3.264,0.832 1.824,0 3.264,-0.832 1.44,-0.832 2.24,-2.336 0.8,-1.504 0.8,-3.456 0,-1.92 -0.8,-3.424 -0.8,-1.504 -2.24,-2.336 -1.44,-0.832 -3.264,-0.832 z" stroke-width="0" stroke-linejoin="miter" stroke-miterlimit="2" fill="#232323" stroke="#232323" transform="translate(0 389.82200000000006) translate(470.56958975000003 61.12) scale(0.75) translate(-463.75175 16.832)"/>
        <path id="path299320" style="font-style:normal;font-weight:300;font-size:32px;line-height:1;font-family:Montserrat;font-variant-ligatures:none;text-align:center;text-anchor:middle" d="m 487.31125,-12.864 q 0.832,-1.92 2.368,-2.912 1.568,-1.024 3.744,-1.056 v 2.016 q -2.656,-0.032 -4.288,1.568 -1.6,1.568 -1.824,4.288 V 0 h -2.144 v -16.768 h 2.144 z" stroke-width="0" stroke-linejoin="miter" stroke-miterlimit="2" fill="#232323" stroke="#232323" transform="translate(0 389.82200000000006) translate(488.13121475 61.12) scale(0.75) translate(-485.16725 16.832)"/>
        <path id="path299322" style="font-style:normal;font-weight:300;font-size:32px;line-height:1;font-family:Montserrat;font-variant-ligatures:none;text-align:center;text-anchor:middle" d="m 505.30275,-1.152 q -1.728,1.184 -3.712,1.248 -1.92,0 -3.04,-1.184 -1.12,-1.184 -1.12,-3.552 v -9.984 h -2.4 l -0.032,-1.664 h 2.432 v -4.32 h 2.144 v 4.32 l 5.44,-0.032 v 1.696 h -5.44 v 9.632 q 0,3.104 2.304,3.104 1.28,0 2.784,-0.896 z" stroke-width="0" stroke-linejoin="miter" stroke-miterlimit="2" fill="#232323" stroke="#232323" transform="translate(0 389.82200000000006) translate(497.00483975 58.288) scale(0.75) translate(-494.99875 20.608)"/>
        <path id="path299324" style="font-style:normal;font-weight:300;font-size:32px;line-height:1;font-family:Montserrat;font-variant-ligatures:none;text-align:center;text-anchor:middle" d="m 509.16725,-2.624 q 0.576,0 0.96,0.416 0.416,0.384 0.416,1.024 0,0.448 -0.352,1.216 l -1.6,3.648 h -1.28 l 1.248,-3.616 q -0.384,-0.16 -0.608,-0.512 -0.192,-0.352 -0.192,-0.736 0,-0.608 0.384,-1.024 0.416,-0.416 1.024,-0.416 z" stroke-width="0" stroke-linejoin="miter" stroke-miterlimit="2" fill="#232323" stroke="#232323" transform="translate(0 389.82200000000006) translate(507.73921475 71.776) scale(0.75) translate(-507.31125 2.624)"/>
        <path id="path299326" style="font-style:normal;font-weight:300;font-size:32px;line-height:1;font-family:Montserrat;font-variant-ligatures:none;text-align:center;text-anchor:middle" d="m 532.55275,-1.152 q -1.728,1.184 -3.712,1.248 -1.92,0 -3.04,-1.184 -1.12,-1.184 -1.12,-3.552 v -9.984 h -2.4 l -0.032,-1.664 h 2.432 v -4.32 h 2.144 v 4.32 l 5.44,-0.032 v 1.696 h -5.44 v 9.632 q 0,3.104 2.304,3.104 1.28,0 2.784,-0.896 z" stroke-width="0" stroke-linejoin="miter" stroke-miterlimit="2" fill="#232323" stroke="#232323" transform="translate(0 389.82200000000006) translate(520.44233975 58.288) scale(0.75) translate(-522.24875 20.608)"/>
        <path id="path299328" style="font-style:normal;font-weight:300;font-size:32px;line-height:1;font-family:Montserrat;font-variant-ligatures:none;text-align:center;text-anchor:middle" d="m 542.69525,-16.832 q 3.904,0 5.952,2.496 2.048,2.464 1.888,6.656 h -13.984 q 0.224,2.688 1.984,4.352 1.76,1.632 4.352,1.632 1.6,0 2.976,-0.576 1.376,-0.576 2.368,-1.632 l 1.216,1.216 q -1.216,1.312 -2.944,2.048 -1.696,0.704 -3.744,0.704 -2.432,0 -4.32,-1.056 -1.888,-1.088 -2.976,-3.008 -1.056,-1.92 -1.056,-4.384 0,-2.432 1.056,-4.352 1.088,-1.952 2.976,-3.008 1.888,-1.088 4.256,-1.088 z m 5.92,7.488 q -0.16,-2.624 -1.76,-4.16 -1.568,-1.568 -4.128,-1.568 -2.528,0 -4.224,1.568 -1.696,1.568 -1.952,4.16 z" stroke-width="0" stroke-linejoin="miter" stroke-miterlimit="2" fill="#232323" stroke="#232323" transform="translate(0 389.82200000000006) translate(531.06121475 61.12) scale(0.75) translate(-534.40725 16.832)"/>
        <path id="path299330" style="font-style:normal;font-weight:300;font-size:32px;line-height:1;font-family:Montserrat;font-variant-ligatures:none;text-align:center;text-anchor:middle" d="m 576.45025,-16.832 q 2.976,0 4.64,1.728 1.664,1.728 1.664,4.8 V 0 h -2.176 v -9.792 q 0,-2.4 -1.312,-3.712 -1.28,-1.344 -3.552,-1.344 -2.688,0.064 -4.224,1.856 -1.504,1.792 -1.504,4.736 V 0 h -2.176 v -9.792 q 0,-2.4 -1.312,-3.712 -1.28,-1.344 -3.552,-1.344 -2.688,0.064 -4.224,1.856 -1.536,1.792 -1.536,4.736 V 0 h -2.144 v -16.768 h 2.144 v 3.936 q 0.832,-1.984 2.464,-2.976 1.664,-0.992 4.032,-1.024 2.4,0 3.968,1.184 1.6,1.184 2.112,3.328 0.768,-2.24 2.464,-3.36 1.728,-1.12 4.224,-1.152 z" stroke-width="0" stroke-linejoin="miter" stroke-miterlimit="2" fill="#232323" stroke="#232323" transform="translate(0 389.82200000000006) translate(548.03746475 61.12) scale(0.75) translate(-555.04225 16.832)"/>
        <path id="path299332" style="font-style:normal;font-weight:300;font-size:32px;line-height:1;font-family:Montserrat;font-variant-ligatures:none;text-align:center;text-anchor:middle" d="M 612.55625,-16.768 V 6.208 h -2.144 V -3.84 q -0.96,1.888 -2.688,2.944 -1.728,1.024 -4.032,1.024 -2.368,0 -4.224,-1.088 -1.856,-1.088 -2.88,-3.04 -1.024,-1.952 -1.024,-4.416 0,-2.464 1.024,-4.384 1.056,-1.92 2.88,-3.008 1.856,-1.088 4.192,-1.088 2.304,0 4.032,1.056 1.76,1.056 2.72,2.944 v -3.872 z m -8.48,15.04 q 1.824,0 3.264,-0.832 1.44,-0.864 2.24,-2.368 0.832,-1.504 0.832,-3.424 0,-1.92 -0.832,-3.424 -0.8,-1.536 -2.24,-2.4 -1.44,-0.864 -3.264,-0.864 -1.824,0 -3.264,0.864 -1.44,0.864 -2.272,2.4 -0.832,1.504 -0.832,3.424 0,1.92 0.8,3.424 0.832,1.504 2.272,2.368 1.472,0.832 3.296,0.832 z" stroke-width="0" stroke-linejoin="miter" stroke-miterlimit="2" fill="#232323" stroke="#232323" transform="translate(0 389.82200000000006) translate(579.9289647500001 61.072) scale(0.75) translate(-595.56425 16.896)"/>
        <path id="path299334" style="font-style:normal;font-weight:300;font-size:32px;line-height:1;font-family:Montserrat;font-variant-ligatures:none;text-align:center;text-anchor:middle" d="M 633.37975,-16.768 V 0 h -2.176 v -4 q -0.832,1.984 -2.496,3.008 -1.632,1.024 -3.968,1.056 -2.976,0 -4.672,-1.728 -1.664,-1.76 -1.664,-4.8 v -10.304 h 2.176 v 9.792 q 0,2.368 1.28,3.712 1.312,1.312 3.584,1.312 2.688,-0.032 4.224,-1.824 1.536,-1.824 1.536,-4.768 v -8.224 z" stroke-width="0" stroke-linejoin="miter" stroke-miterlimit="2" fill="#232323" stroke="#232323" transform="translate(0 389.82200000000006) translate(598.5585897500001 61.168) scale(0.75) translate(-618.40375 16.768)"/>
        <path id="path299336" style="font-style:normal;font-weight:300;font-size:32px;line-height:1;font-family:Montserrat;font-variant-ligatures:none;text-align:center;text-anchor:middle" d="m 650.13275,0 -0.032,-2.816 q -0.992,1.472 -2.592,2.208 -1.6,0.704 -3.68,0.704 -1.696,0 -3.008,-0.64 -1.28,-0.672 -1.984,-1.824 -0.704,-1.152 -0.704,-2.592 0,-2.176 1.664,-3.424 1.696,-1.248 4.64,-1.248 h 5.632 v -1.28 q 0,-1.984 -1.184,-3.072 -1.184,-1.088 -3.456,-1.088 -2.688,0 -5.408,2.016 l -0.96,-1.472 q 1.696,-1.184 3.232,-1.728 1.536,-0.576 3.52,-0.576 3.04,0 4.704,1.536 1.664,1.504 1.696,4.192 L 652.24475,0 Z m -5.92,-1.696 q 2.24,0 3.776,-1.024 1.568,-1.056 2.112,-2.944 v -2.304 h -5.408 q -2.208,0 -3.36,0.736 -1.152,0.736 -1.152,2.208 0,1.504 1.088,2.432 1.12,0.896 2.944,0.896 z" stroke-width="0" stroke-linejoin="miter" stroke-miterlimit="2" fill="#232323" stroke="#232323" transform="translate(0 389.82200000000006) translate(614.8553397500001 61.12) scale(0.75) translate(-638.13275 16.832)"/>
        <path id="path299338" style="font-style:normal;font-weight:300;font-size:32px;line-height:1;font-family:Montserrat;font-variant-ligatures:none;text-align:center;text-anchor:middle" d="m 658.13975,-23.744 h 2.144 V 0 h -2.144 z" stroke-width="0" stroke-linejoin="miter" stroke-miterlimit="2" fill="#232323" stroke="#232323" transform="translate(0 389.82200000000006) translate(631.3605897500001 55.936) scale(0.75) translate(-658.13975 23.744)"/>
        <path id="path299340" style="font-style:normal;font-weight:300;font-size:32px;line-height:1;font-family:Montserrat;font-variant-ligatures:none;text-align:center;text-anchor:middle" d="m 666.72975,-16.768 h 2.144 V 0 h -2.144 z m 1.088,-6.336 q 0.64,0 1.056,0.448 0.416,0.416 0.416,1.056 0,0.64 -0.448,1.088 -0.416,0.448 -1.024,0.448 -0.64,0 -1.088,-0.448 -0.416,-0.448 -0.416,-1.088 0,-0.64 0.416,-1.056 0.448,-0.448 1.088,-0.448 z" stroke-width="0" stroke-linejoin="miter" stroke-miterlimit="2" fill="#232323" stroke="#232323" transform="translate(0 389.82200000000006) translate(638.9910897500001 56.416) scale(0.75) translate(-666.31375 23.104)"/>
        <path id="path299342" style="font-style:normal;font-weight:300;font-size:32px;line-height:1;font-family:Montserrat;font-variant-ligatures:none;text-align:center;text-anchor:middle" d="M 690.36875,-23.744 V 0 h -2.144 v -3.84 q -0.96,1.888 -2.688,2.944 -1.728,1.024 -4.032,1.024 -2.368,0 -4.224,-1.088 -1.856,-1.088 -2.88,-3.04 -1.024,-1.952 -1.024,-4.416 0,-2.464 1.024,-4.384 1.056,-1.92 2.88,-3.008 1.856,-1.088 4.192,-1.088 2.304,0 4.032,1.056 1.76,1.056 2.72,2.944 v -10.848 z m -8.48,22.016 q 1.824,0 3.264,-0.832 1.44,-0.864 2.24,-2.368 0.832,-1.504 0.832,-3.424 0,-1.92 -0.832,-3.424 -0.8,-1.536 -2.24,-2.4 -1.44,-0.864 -3.264,-0.864 -1.824,0 -3.264,0.864 -1.44,0.864 -2.272,2.4 -0.832,1.504 -0.832,3.424 0,1.92 0.8,3.424 0.832,1.504 2.272,2.368 1.472,0.832 3.296,0.832 z" stroke-width="0" stroke-linejoin="miter" stroke-miterlimit="2" fill="#232323" stroke="#232323" transform="translate(0 389.82200000000006) translate(645.7883397500001 55.936) scale(0.75) translate(-673.37675 23.744)"/>
        <path id="path299344" style="font-style:normal;font-weight:300;font-size:32px;line-height:1;font-family:Montserrat;font-variant-ligatures:none;text-align:center;text-anchor:middle" d="m 707.32025,0 -0.032,-2.816 q -0.992,1.472 -2.592,2.208 -1.6,0.704 -3.68,0.704 -1.696,0 -3.008,-0.64 -1.28,-0.672 -1.984,-1.824 -0.704,-1.152 -0.704,-2.592 0,-2.176 1.664,-3.424 1.696,-1.248 4.64,-1.248 h 5.632 v -1.28 q 0,-1.984 -1.184,-3.072 -1.184,-1.088 -3.456,-1.088 -2.688,0 -5.408,2.016 l -0.96,-1.472 q 1.696,-1.184 3.232,-1.728 1.536,-0.576 3.52,-0.576 3.04,0 4.704,1.536 1.664,1.504 1.696,4.192 L 709.43225,0 Z m -5.92,-1.696 q 2.24,0 3.776,-1.024 1.568,-1.056 2.112,-2.944 v -2.304 h -5.408 q -2.208,0 -3.36,0.736 -1.152,0.736 -1.152,2.208 0,1.504 1.088,2.432 1.12,0.896 2.944,0.896 z" stroke-width="0" stroke-linejoin="miter" stroke-miterlimit="2" fill="#232323" stroke="#232323" transform="translate(0 389.82200000000006) translate(663.7459647500001 61.12) scale(0.75) translate(-695.32025 16.832)"/>
        <path id="path299346" style="font-style:normal;font-weight:300;font-size:32px;line-height:1;font-family:Montserrat;font-variant-ligatures:none;text-align:center;text-anchor:middle" d="M 730.43125,-23.744 V 0 h -2.144 v -3.84 q -0.96,1.888 -2.688,2.944 -1.728,1.024 -4.032,1.024 -2.368,0 -4.224,-1.088 -1.856,-1.088 -2.88,-3.04 -1.024,-1.952 -1.024,-4.416 0,-2.464 1.024,-4.384 1.056,-1.92 2.88,-3.008 1.856,-1.088 4.192,-1.088 2.304,0 4.032,1.056 1.76,1.056 2.72,2.944 v -10.848 z m -8.48,22.016 q 1.824,0 3.264,-0.832 1.44,-0.864 2.24,-2.368 0.832,-1.504 0.832,-3.424 0,-1.92 -0.832,-3.424 -0.8,-1.536 -2.24,-2.4 -1.44,-0.864 -3.264,-0.864 -1.824,0 -3.264,0.864 -1.44,0.864 -2.272,2.4 -0.832,1.504 -0.832,3.424 0,1.92 0.8,3.424 0.832,1.504 2.272,2.368 1.472,0.832 3.296,0.832 z" stroke-width="0" stroke-linejoin="miter" stroke-miterlimit="2" fill="#232323" stroke="#232323" transform="translate(0 389.82200000000006) translate(678.8352147500001 55.936) scale(0.75) translate(-713.43925 23.744)"/>
        <path id="path299348" style="font-style:normal;font-weight:300;font-size:32px;line-height:1;font-family:Montserrat;font-variant-ligatures:none;text-align:center;text-anchor:middle" d="m 743.38275,-16.832 q 3.904,0 5.952,2.496 2.048,2.464 1.888,6.656 h -13.984 q 0.224,2.688 1.984,4.352 1.76,1.632 4.352,1.632 1.6,0 2.976,-0.576 1.376,-0.576 2.368,-1.632 l 1.216,1.216 q -1.216,1.312 -2.944,2.048 -1.696,0.704 -3.744,0.704 -2.432,0 -4.32,-1.056 -1.888,-1.088 -2.976,-3.008 -1.056,-1.92 -1.056,-4.384 0,-2.432 1.056,-4.352 1.088,-1.952 2.976,-3.008 1.888,-1.088 4.256,-1.088 z m 5.92,7.488 q -0.16,-2.624 -1.76,-4.16 -1.568,-1.568 -4.128,-1.568 -2.528,0 -4.224,1.568 -1.696,1.568 -1.952,4.16 z" stroke-width="0" stroke-linejoin="miter" stroke-miterlimit="2" fill="#232323" stroke="#232323" transform="translate(0 389.82200000000006) translate(696.5768397500001 61.12) scale(0.75) translate(-735.09475 16.832)"/>
      </g>
      <g id="title" style="font-style:normal;font-weight:normal;font-size:72px;line-height:1;font-family:'Brandmark Sans 5 Spectrum';font-variant-ligatures:normal;text-align:center;text-anchor:middle" transform="translate(0 0)">
        <g id="path299351" aria-label="^P" transform="translate(0 325.37800000000004) translate(231.14842499999997 -25.6) scale(2.5) translate(-405.65937 50.4)"> <path d="M 75.208801 75.208817 H 96.901121 V 124.791218 H 75.208801 V 75.208817 Z" class="c3" transform="translate(330.450576 -125.60876)" stroke-width="0" stroke-linejoin="miter" stroke-miterlimit="2" fill="#253a94" stroke="#253a94"/> <path class="c1" d="M112.39563,75.20876H75.2088v24.7912h37.18683c6.84589,0,12.39557-5.54968,12.39557-12.39557 S119.24152,75.20876,112.39563,75.20876z" transform="translate(330.450576 -125.60876)" stroke-width="0" stroke-linejoin="miter" stroke-miterlimit="2" fill="#232323" stroke="#232323"/> <path d="M 75.208794 75.208801 H 96.901054 V 99.999941 H 75.208794 V 75.208801 Z" class="c2" transform="translate(330.450576 -125.60876)" stroke-width="0" stroke-linejoin="miter" stroke-miterlimit="2" fill="#242e5b" stroke="#242e5b"/> </g>
        <g id="path299353" aria-label="^O" transform="translate(0 325.37800000000004) translate(376.5 -25.6) scale(2.5) translate(-459.8 50.4)"> <path d="M 124.791201 99.999992 A 24.791201 24.791201 0 0 1 100 124.791193 A 24.791201 24.791201 0 0 1 75.208799 99.999992 A 24.791201 24.791201 0 0 1 100 75.208792 A 24.791201 24.791201 0 0 1 124.791201 99.999992 Z" class="c3" transform="translate(384.591201 -125.608792)" stroke-width="0" stroke-linejoin="miter" stroke-miterlimit="2" fill="#253a94" stroke="#253a94"/> <path d="M 112.3956 99.999992 A 12.3956 12.3956 0 0 1 100 112.395593 A 12.3956 12.3956 0 0 1 87.6044 99.999992 A 12.3956 12.3956 0 0 1 100 87.604392 A 12.3956 12.3956 0 0 1 112.3956 99.999992 Z" class="c2" transform="translate(384.591201 -125.608792)" stroke-width="0" stroke-linejoin="miter" stroke-miterlimit="2" fill="#242e5b" stroke="#242e5b"/> </g>
        <g id="path299355" aria-label="R" transform="translate(0 325.37800000000004) translate(521.4999999999999 -25.6) scale(2.5) translate(-513.8 50.4)"> <path d="M 124.79122161865234 124.79120635986328 L 75.20879364013672 124.79120635986328 L 75.20879364013672 75.20879364013672 Z" class="c3" transform="translate(438.59122 -125.60876)" stroke-width="0" stroke-linejoin="miter" stroke-miterlimit="2" fill="#253a94" stroke="#253a94"/> <path class="c1" d="M106.19781,75.20876H75.2088v37.18683h30.98901c10.26886,0,18.59338-8.32452,18.59338-18.59338 S116.46667,75.20876,106.19781,75.20876z" transform="translate(438.59122 -125.60876)" stroke-width="0" stroke-linejoin="miter" stroke-miterlimit="2" fill="#232323" stroke="#232323"/> <path class="c2" d="M75.20878,75.20885v37.18677h30.98901c1.87744,0,3.6875-0.28418,5.396-0.80176L75.20878,75.20885z" transform="translate(438.59122 -125.60876)" stroke-width="0" stroke-linejoin="miter" stroke-miterlimit="2" fill="#242e5b" stroke="#242e5b"/> </g>
        <g id="path299357" aria-label="^T" transform="translate(0 325.37800000000004) translate(666.85155 -25.6) scale(2.5) translate(-567.94062 50.4)"> <path d="M 89.153847 75.208794 H 110.846167 V 124.791195 H 89.153847 V 75.208794 Z" class="c1" transform="translate(492.731842 -125.608794)" stroke-width="0" stroke-linejoin="miter" stroke-miterlimit="2" fill="#232323" stroke="#232323"/> <path d="M 75.208778 75.208794 H 124.79118 V 99.999933 H 75.208778 V 75.208794 Z" class="c3" transform="translate(492.731842 -125.608794)" stroke-width="0" stroke-linejoin="miter" stroke-miterlimit="2" fill="#253a94" stroke="#253a94"/> <path d="M 89.153877 75.208809 H 110.846138 V 100.000019 H 89.153877 V 75.208809 Z" class="c2" transform="translate(492.731842 -125.608794)" stroke-width="0" stroke-linejoin="miter" stroke-miterlimit="2" fill="#242e5b" stroke="#242e5b"/> </g>
          </g>
      <image id="icon" style="display: none;" x="0" y="0" xlink:href=""/>
    </g>
  </g></g></svg>